<svg width="49" height="37" viewBox="0 0 49 37" fill="none" xmlns="http://www.w3.org/2000/svg">
<rect x="0.5" y="0.799805" width="48" height="36" rx="8" fill="white"/>
<rect x="1" y="1.2998" width="47" height="35" rx="7.5" stroke="#262626" stroke-opacity="0.2"/>
<path fill-rule="evenodd" clip-rule="evenodd" d="M25.409 12.7088C25.831 12.2869 26.4033 12.0498 27 12.0498C27.5967 12.0498 28.169 12.2869 28.591 12.7088C29.0129 13.1308 29.25 13.7031 29.25 14.2998C29.25 14.8965 29.0129 15.4688 28.591 15.8908C28.169 16.3128 27.5967 16.5498 27 16.5498C26.4033 16.5498 25.831 16.3128 25.409 15.8908C24.9871 15.4688 24.75 14.8965 24.75 14.2998C24.75 13.7031 24.9871 13.1308 25.409 12.7088ZM27 13.5498C26.8011 13.5498 26.6103 13.6288 26.4697 13.7695C26.329 13.9101 26.25 14.1009 26.25 14.2998C26.25 14.4987 26.329 14.6895 26.4697 14.8301C26.6103 14.9708 26.8011 15.0498 27 15.0498C27.1989 15.0498 27.3897 14.9708 27.5303 14.8301C27.671 14.6895 27.75 14.4987 27.75 14.2998C27.75 14.1009 27.671 13.9101 27.5303 13.7695C27.3897 13.6288 27.1989 13.5498 27 13.5498Z" fill="#6C6969"/>
<path fill-rule="evenodd" clip-rule="evenodd" d="M18.75 14.2998C18.75 13.8856 19.0858 13.5498 19.5 13.5498H25.5C25.9142 13.5498 26.25 13.8856 26.25 14.2998C26.25 14.714 25.9142 15.0498 25.5 15.0498H19.5C19.0858 15.0498 18.75 14.714 18.75 14.2998Z" fill="#6C6969"/>
<path fill-rule="evenodd" clip-rule="evenodd" d="M27.75 14.2998C27.75 13.8856 28.0858 13.5498 28.5 13.5498H31.5C31.9142 13.5498 32.25 13.8856 32.25 14.2998C32.25 14.714 31.9142 15.0498 31.5 15.0498H28.5C28.0858 15.0498 27.75 14.714 27.75 14.2998Z" fill="#6C6969"/>
<path fill-rule="evenodd" clip-rule="evenodd" d="M20.909 17.2088C21.331 16.7869 21.9033 16.5498 22.5 16.5498C23.0967 16.5498 23.669 16.7869 24.091 17.2088C24.5129 17.6308 24.75 18.2031 24.75 18.7998C24.75 19.3965 24.5129 19.9688 24.091 20.3908C23.669 20.8128 23.0967 21.0498 22.5 21.0498C21.9033 21.0498 21.331 20.8128 20.909 20.3908C20.4871 19.9688 20.25 19.3965 20.25 18.7998C20.25 18.2031 20.4871 17.6308 20.909 17.2088ZM22.5 18.0498C22.3011 18.0498 22.1103 18.1288 21.9697 18.2695C21.829 18.4101 21.75 18.6009 21.75 18.7998C21.75 18.9987 21.829 19.1895 21.9697 19.3301C22.1103 19.4708 22.3011 19.5498 22.5 19.5498C22.6989 19.5498 22.8897 19.4708 23.0303 19.3301C23.171 19.1895 23.25 18.9987 23.25 18.7998C23.25 18.6009 23.171 18.4101 23.0303 18.2695C22.8897 18.1288 22.6989 18.0498 22.5 18.0498Z" fill="#6C6969"/>
<path fill-rule="evenodd" clip-rule="evenodd" d="M18.75 18.7998C18.75 18.3856 19.0858 18.0498 19.5 18.0498H21C21.4142 18.0498 21.75 18.3856 21.75 18.7998C21.75 19.214 21.4142 19.5498 21 19.5498H19.5C19.0858 19.5498 18.75 19.214 18.75 18.7998Z" fill="#6C6969"/>
<path fill-rule="evenodd" clip-rule="evenodd" d="M23.25 18.7998C23.25 18.3856 23.5858 18.0498 24 18.0498H31.5C31.9142 18.0498 32.25 18.3856 32.25 18.7998C32.25 19.214 31.9142 19.5498 31.5 19.5498H24C23.5858 19.5498 23.25 19.214 23.25 18.7998Z" fill="#6C6969"/>
<path fill-rule="evenodd" clip-rule="evenodd" d="M27.659 21.7088C28.081 21.2869 28.6533 21.0498 29.25 21.0498C29.8467 21.0498 30.419 21.2869 30.841 21.7088C31.2629 22.1308 31.5 22.7031 31.5 23.2998C31.5 23.8965 31.2629 24.4688 30.841 24.8908C30.419 25.3128 29.8467 25.5498 29.25 25.5498C28.6533 25.5498 28.081 25.3128 27.659 24.8908C27.2371 24.4688 27 23.8965 27 23.2998C27 22.7031 27.2371 22.1308 27.659 21.7088ZM29.25 22.5498C29.0511 22.5498 28.8603 22.6288 28.7197 22.7695C28.579 22.9101 28.5 23.1009 28.5 23.2998C28.5 23.4987 28.579 23.6895 28.7197 23.8301C28.8603 23.9708 29.0511 24.0498 29.25 24.0498C29.4489 24.0498 29.6397 23.9708 29.7803 23.8301C29.921 23.6895 30 23.4987 30 23.2998C30 23.1009 29.921 22.9101 29.7803 22.7695C29.6397 22.6288 29.4489 22.5498 29.25 22.5498Z" fill="#6C6969"/>
<path fill-rule="evenodd" clip-rule="evenodd" d="M18.75 23.2998C18.75 22.8856 19.0858 22.5498 19.5 22.5498H27.75C28.1642 22.5498 28.5 22.8856 28.5 23.2998C28.5 23.714 28.1642 24.0498 27.75 24.0498H19.5C19.0858 24.0498 18.75 23.714 18.75 23.2998Z" fill="#6C6969"/>
<path fill-rule="evenodd" clip-rule="evenodd" d="M30 23.2998C30 22.8856 30.3358 22.5498 30.75 22.5498H31.5C31.9142 22.5498 32.25 22.8856 32.25 23.2998C32.25 23.714 31.9142 24.0498 31.5 24.0498H30.75C30.3358 24.0498 30 23.714 30 23.2998Z" fill="#6C6969"/>
</svg>
